# xmcd
#
# Track frame offsets: 
#        150
#        10848
#        27934
#        40598
#        53536
#        70132
#        84467
#        100475
#        110482
#        125110
#        138112
#        163493
#
# Disc length: 2346 seconds
#
# Revision: 1
# Processed by: cddbd v1.5.2PL0 Copyright (c) Steve Scherf et al.
# Submitted via: ExactAudioCopy v1.0b1
#
DISCID=9c09280c
DTITLE=Ray Stevens - The Best Of Ray Stevens (The Millennium Collectio
DTITLE=n)
DYEAR=2004
DGENRE=Country
TTITLE0=Jeremiah Peabody's Poly Unstaurated Quick Dissolving Fast Acti
TTITLE0=ng Pleasnt Tasting Green And Purple Pill's
TTITLE1=Ahab The Arab
TTITLE2=Harry The Hairy Ape
TTITLE3=Freddie Feelgood (And His Funky Little Five Piece Band)
TTITLE4=Mr Businessman
TTITLE5=Gitarzan
TTITLE6=Everything Is Beatiful
TTITLE7=Turn Your Radio On
TTITLE8=The Streak
TTITLE9=Misty
TTITLE10=Shriner's Convention
TTITLE11=Would Jesus Wear A Rolex
EXTD=
EXTT0=
EXTT1=
EXTT2=
EXTT3=
EXTT4=
EXTT5=
EXTT6=
EXTT7=
EXTT8=
EXTT9=
EXTT10=
EXTT11=
PLAYORDER=
